<svg xmlns="http://www.w3.org/2000/svg" xml:space="preserve" width="160mm" height="43mm" style="shape-rendering:geometricPrecision; text-rendering:geometricPrecision; image-rendering:optimizeQuality; fill-rule:evenodd; clip-rule:evenodd" viewBox="0 0 16000 4300"><defs><style><![CDATA[
    .str0 {stroke:#2B2A29;stroke-width:10;stroke-miterlimit:22.9256}
    .str1 {stroke:#FEFEFE;stroke-width:7.62;stroke-miterlimit:22.9256}
    .fil1 {fill:#FEFEFE}
    .fil2 {fill:#016001}
    .fil0 {fill:#4B5563}
    .fil4 {fill:#FEFEFE;fill-rule:nonzero}
    .fil3 {fill:#016001;fill-rule:nonzero}
   ]]></style></defs><g id="Layer_x0020_1"><rect width="15498.14" height="3849.09" x="263.1" y="248.45" class="fil0 str0" rx="400" ry="274.59"/><circle cx="3550.23" cy="2192.71" r="1570.34" class="fil1"/><path d="M3258.24 1037.1h193.85v523.11h-193.85V1037.1zm193.85 1807.45v524.56h-193.85v-524.56h193.85zM3623.14 1037.1H3817v613.41l-38.87-7.64-76-21.38c-13.62 0-51.37-1.39-78.99-.4V1037.1zM3817 2801.21v567.9h-193.86v-567.9H3817z" class="fil2 str1"/><path d="M3608.04 3092.88c-134.28 0-259.02-21.97-374.24-65.9-115.21-43.93-215.09-106.51-299.64-187.74-84.55-81.23-150.44-176.55-197.69-285.97-47.25-109.41-70.87-229.6-70.87-360.56 0-130.97 23.62-251.15 70.87-360.57 47.25-109.41 113.56-204.73 198.93-285.96 85.38-81.23 185.26-143.81 299.64-187.75 114.39-43.93 239.55-65.89 375.49-65.89 150.86 0 287.21 26.11 409.06 78.33 121.84 52.22 224.21 128.89 307.1 230.01l-258.61 238.72c-59.68-67.97-125.99-118.94-198.94-152.93-72.94-33.98-152.51-50.97-238.72-50.97-81.23 0-155.83 13.26-223.8 39.78-67.96 26.53-126.82 64.66-176.55 114.39-49.73 49.73-88.27 108.58-115.63 176.55-27.35 67.97-41.03 143.4-41.03 226.29 0 82.89 13.68 158.32 41.03 226.29 27.36 67.96 65.9 126.81 115.63 176.55 49.73 49.73 108.59 87.86 176.55 114.38 67.97 26.53 142.57 39.79 223.8 39.79 86.21 0 165.78-16.99 238.72-50.98 72.95-33.98 139.26-85.79 198.94-155.41l258.61 238.72c-82.89 101.12-185.26 178.21-307.1 231.26-121.85 53.05-259.03 79.57-411.55 79.57z" class="fil3"/><path d="M6170.4 2499.2c-45.72 0-88.2-7.48-127.43-22.44-39.22-14.95-73.23-36.26-102.02-63.92-28.79-27.66-51.22-60.11-67.31-97.37-16.09-37.25-24.13-78.17-24.13-122.76 0-44.6 8.04-85.52 24.13-122.77 16.09-37.26 38.66-69.71 67.73-97.37 29.07-27.66 63.08-48.96 102.03-63.92 38.94-14.96 81.56-22.44 127.84-22.44 51.37 0 97.8 8.89 139.28 26.67 41.49 17.78 76.34 43.89 104.57 78.32l-88.06 81.28c-20.32-23.14-42.9-40.5-67.73-52.07-24.84-11.57-51.93-17.36-81.28-17.36-27.66 0-53.06 4.52-76.2 13.55-23.14 9.03-43.18 22.01-60.12 38.94-16.93 16.94-30.05 36.98-39.37 60.12-9.31 23.14-13.97 48.82-13.97 77.05 0 28.22 4.66 53.9 13.97 77.04 9.32 23.14 22.44 43.18 39.37 60.12 16.94 16.93 36.98 29.91 60.12 38.94 23.14 9.03 48.54 13.55 76.2 13.55 29.35 0 56.44-5.79 81.28-17.36 24.83-11.57 47.41-29.21 67.73-52.91l88.06 81.28c-28.23 34.43-63.08 60.67-104.57 78.74-41.48 18.06-88.19 27.09-140.12 27.09z" class="fil4"/><path id="1" d="M6780.85 2498.35c-45.72 0-88.48-7.48-128.27-22.43-39.8-14.96-74.23-36.27-103.3-63.93-29.07-27.65-51.36-60.25-66.88-97.79-15.53-37.53-23.57-78.03-24.13-121.49 0-44.03 8.04-84.53 24.13-121.5 16.08-36.97 38.66-69.43 67.73-97.37 29.07-27.94 63.36-49.53 102.87-64.77 39.51-15.24 82.13-22.58 127.85-22.01 47.41-.57 90.73 6.77 129.96 22.01 39.23 15.24 73.38 36.69 102.45 64.35 29.07 27.66 51.65 59.97 67.73 96.94 16.09 36.97 23.85 77.75 23.29 122.35.56 44.02-7.2 84.8-23.29 122.34-16.08 37.54-38.66 69.99-67.73 97.37-29.07 27.37-63.22 48.68-102.45 63.92-39.23 15.24-82.55 22.58-129.96 22.01zm0-115.14c27.09-.57 51.93-5.37 74.51-14.4 22.57-9.03 42.19-22.01 58.84-38.94 16.65-16.94 29.63-36.98 38.95-60.12 9.31-23.14 14.25-48.82 14.81-77.04-.56-28.23-5.5-53.91-14.81-77.05-9.32-23.14-22.3-43.18-38.95-60.12-16.65-16.93-36.27-30.05-58.84-39.37-22.58-9.31-47.42-13.97-74.51-13.97-25.97.57-50.24 5.37-72.82 14.4-22.57 9.03-42.19 22.01-58.84 38.94-16.65 16.94-29.63 36.84-38.95 59.7-9.31 22.86-14.25 48.68-14.81 77.47.56 27.65 5.5 53.19 14.81 76.62 9.32 23.42 22.3 43.6 38.95 60.54 16.65 16.93 36.13 30.05 58.42 39.37 22.3 9.31 46.71 13.97 73.24 13.97z" class="fil4"/><polygon id="2" points="7209.26,2489.04 7209.26,1896.37 7322.72,1896.37 7672.39,2323.09 7618.21,2323.94 7617.36,1896.37 7752.83,1896.37 7752.83,2489.04 7640.22,2489.04 7289.7,2062.32 7344.73,2061.47 7344.73,2489.04" class="fil4"/><path id="3" d="M8177.01 2499.2c-45.72 0-88.2-7.48-127.43-22.44-39.22-14.95-73.23-36.26-102.02-63.92-28.79-27.66-51.22-60.11-67.31-97.37-16.09-37.25-24.13-78.17-24.13-122.76 0-44.6 8.04-85.52 24.13-122.77 16.09-37.26 38.66-69.71 67.73-97.37 29.07-27.66 63.08-48.96 102.03-63.92 38.94-14.96 81.56-22.44 127.84-22.44 51.37 0 97.8 8.89 139.28 26.67 41.49 17.78 76.34 43.89 104.57 78.32l-88.06 81.28c-20.32-23.14-42.9-40.5-67.73-52.07-24.84-11.57-51.93-17.36-81.28-17.36-27.66 0-53.06 4.52-76.2 13.55-23.14 9.03-43.18 22.01-60.12 38.94-16.93 16.94-30.05 36.98-39.37 60.12-9.31 23.14-13.97 48.82-13.97 77.05 0 28.22 4.66 53.9 13.97 77.04 9.32 23.14 22.44 43.18 39.37 60.12 16.94 16.93 36.98 29.91 60.12 38.94 23.14 9.03 48.54 13.55 76.2 13.55 29.35 0 56.44-5.79 81.28-17.36 24.83-11.57 47.41-29.21 67.73-52.91l88.06 81.28c-28.23 34.43-63.08 60.67-104.57 78.74-41.48 18.06-88.19 27.09-140.12 27.09z" class="fil4"/><path id="4" d="M8787.46 2498.35c-45.72 0-88.48-7.48-128.27-22.43-39.8-14.96-74.23-36.27-103.3-63.93-29.07-27.65-51.36-60.25-66.88-97.79-15.53-37.53-23.57-78.03-24.13-121.49 0-44.03 8.04-84.53 24.13-121.5 16.08-36.97 38.66-69.43 67.73-97.37 29.07-27.94 63.36-49.53 102.87-64.77 39.51-15.24 82.13-22.58 127.85-22.01 47.41-.57 90.73 6.77 129.96 22.01 39.23 15.24 73.38 36.69 102.45 64.35 29.07 27.66 51.65 59.97 67.73 96.94 16.09 36.97 23.85 77.75 23.29 122.35.56 44.02-7.2 84.8-23.29 122.34-16.08 37.54-38.66 69.99-67.73 97.37-29.07 27.37-63.22 48.68-102.45 63.92-39.23 15.24-82.55 22.58-129.96 22.01zm0-115.14c27.09-.57 51.93-5.37 74.51-14.4 22.57-9.03 42.19-22.01 58.84-38.94 16.65-16.94 29.63-36.98 38.95-60.12 9.31-23.14 14.25-48.82 14.81-77.04-.56-28.23-5.5-53.91-14.81-77.05-9.32-23.14-22.3-43.18-38.95-60.12-16.65-16.93-36.27-30.05-58.84-39.37-22.58-9.31-47.42-13.97-74.51-13.97-25.97.57-50.24 5.37-72.82 14.4-22.57 9.03-42.19 22.01-58.84 38.94-16.65 16.94-29.63 36.84-38.95 59.7-9.31 22.86-14.25 48.68-14.81 77.47.56 27.65 5.5 53.19 14.81 76.62 9.32 23.42 22.3 43.6 38.95 60.54 16.65 16.93 36.13 30.05 58.42 39.37 22.3 9.31 46.71 13.97 73.24 13.97z" class="fil4"/><path id="5" d="M9215.87 2489.04v-592.67h256.54c53.06 0 98.78 8.61 137.17 25.82 38.38 17.22 68.01 41.91 88.9 74.09 20.88 32.17 31.32 70.55 31.32 115.15 0 44.02-10.44 81.98-31.32 113.87-20.89 31.89-50.52 56.31-88.9 73.24-38.39 16.93-84.11 25.4-137.17 25.4h-180.34l60.96-60.11v225.21h-137.16zm376.77 0-148.17-215.05h146.48l149.86 215.05h-148.17zm-239.61-209.97-60.96-64.35h172.72c42.34 0 73.95-9.17 94.83-27.52 20.89-18.34 31.33-43.6 31.33-75.77 0-32.74-10.44-58.14-31.33-76.21-20.88-18.06-52.49-27.09-94.83-27.09h-172.72l60.96-65.19v336.13z" class="fil4"/><path id="6" d="M9838.17 2489.04v-592.67h269.24c64.35 0 121.08 12.28 170.19 36.83 49.1 24.55 87.48 58.84 115.14 102.87 27.66 44.03 41.21 96.24 40.64 156.64.57 59.83-12.98 111.9-40.64 156.21s-66.04 78.74-115.14 103.29c-49.11 24.55-105.84 36.83-170.19 36.83h-269.24zm137.16-112.61h125.31c39.51.57 73.8-6.77 102.87-22.01 29.07-15.24 51.65-36.69 67.74-64.35 16.08-27.66 24.41-60.11 24.97-97.36-.56-37.82-8.89-70.42-24.97-97.79-16.09-27.38-38.67-48.69-67.74-63.93-29.07-15.24-63.36-22.58-102.87-22.01l-125.31-.85v368.3z" class="fil4"/><polygon id="7" points="10537.52,2489.04 10537.52,1896.37 10674.68,1896.37 10674.68,2489.04" class="fil4"/><path id="8" d="m10737.34 2489.04 264.16-592.67h135.47l265.01 592.67h-143.94l-216.75-523.24h54.19l-217.59 523.24h-140.55zm132.08-127 36.41-104.14h304.8l37.25 104.14h-378.46z" class="fil4"/><path id="9" d="M11987.03 2499.2c-45.72 0-88.2-7.48-127.43-22.44-39.22-14.95-73.23-36.26-102.02-63.92-28.79-27.66-51.22-60.11-67.31-97.37-16.09-37.25-24.13-78.17-24.13-122.76 0-44.6 8.04-85.52 24.13-122.77 16.09-37.26 38.66-69.71 67.73-97.37 29.07-27.66 63.08-48.96 102.03-63.92 38.94-14.96 81.56-22.44 127.84-22.44 51.37 0 97.8 8.89 139.28 26.67 41.49 17.78 76.34 43.89 104.57 78.32l-88.06 81.28c-20.32-23.14-42.9-40.5-67.73-52.07-24.84-11.57-51.93-17.36-81.28-17.36-27.66 0-53.06 4.52-76.2 13.55-23.14 9.03-43.18 22.01-60.12 38.94-16.93 16.94-30.05 36.98-39.37 60.12-9.31 23.14-13.97 48.82-13.97 77.05 0 28.22 4.66 53.9 13.97 77.04 9.32 23.14 22.44 43.18 39.37 60.12 16.94 16.93 36.98 29.91 60.12 38.94 23.14 9.03 48.54 13.55 76.2 13.55 29.35 0 56.44-5.79 81.28-17.36 24.83-11.57 47.41-29.21 67.73-52.91l88.06 81.28c-28.23 34.43-63.08 60.67-104.57 78.74-41.48 18.06-88.19 27.09-140.12 27.09z" class="fil4"/><path id="10" d="m12234.26 2489.04 264.16-592.67h135.47l265.01 592.67h-143.94l-216.75-523.24h54.19l-217.59 523.24h-140.55zm132.08-127 36.41-104.14h304.8l37.25 104.14h-378.46z" class="fil4"/><path id="11" d="M13155.44 2499.2c-47.42 0-92.85-6.35-136.32-19.05-43.46-12.7-78.45-29.21-104.98-49.53l46.56-103.29c25.4 18.06 55.46 32.88 90.17 44.45 34.72 11.57 69.85 17.35 105.41 17.35 27.1 0 48.97-2.68 65.62-8.04 16.65-5.36 28.93-12.84 36.83-22.44 7.9-9.59 11.85-20.6 11.85-33.02 0-15.8-6.2-28.36-18.62-37.67-12.42-9.32-28.79-16.94-49.11-22.86-20.32-5.93-42.76-11.58-67.31-16.94-24.55-5.36-49.11-11.99-73.66-19.89-24.55-7.91-46.99-18.07-67.31-30.48-20.32-12.42-36.83-28.79-49.53-49.11-12.7-20.32-19.05-46.29-19.05-77.89 0-33.87 9.17-64.78 27.52-92.72 18.34-27.94 46-50.23 82.97-66.88s83.4-24.98 139.28-24.98c37.25 0 73.94 4.38 110.06 13.12 36.13 8.75 68.02 21.88 95.68 39.37l-42.33 104.14c-27.66-15.8-55.32-27.51-82.98-35.13-27.66-7.62-54.75-11.43-81.28-11.43s-48.26 3.1-65.19 9.31c-16.94 6.21-29.07 14.25-36.41 24.13-7.34 9.88-11.01 21.31-11.01 34.29 0 15.24 6.21 27.52 18.63 36.83 12.42 9.32 28.79 16.79 49.11 22.44 20.32 5.64 42.75 11.29 67.31 16.93 24.55 5.65 49.1 12.14 73.66 19.48 24.55 7.33 46.99 17.21 67.31 29.63 20.32 12.42 36.83 28.79 49.53 49.11 12.7 20.32 19.05 46 19.05 77.04 0 33.31-9.31 63.79-27.94 91.44-18.63 27.66-46.43 49.96-83.4 66.89-36.97 16.93-83.68 25.4-140.12 25.4z" class="fil4"/><path id="12" d="M13907.29 1896.37h136.31l.85 592.67h-136.32l-.84-592.67zm-269.25 592.67h-136.31l-.85-592.67h136.32l.84 592.67zm280.25-243.84-290.41.85-.84-115.15 290.41-.85.84 115.15z" class="fil4"/></g></svg>