<svg xmlns="http://www.w3.org/2000/svg" xml:space="preserve" width="160mm" height="61mm" style="shape-rendering:geometricPrecision; text-rendering:geometricPrecision; image-rendering:optimizeQuality; fill-rule:evenodd; clip-rule:evenodd" viewBox="0 0 16000 6100"><defs><style><![CDATA[
    .str0 {stroke:#FEFEFE;stroke-width:10;stroke-miterlimit:22.9256}
    .str1 {stroke:#FEFEFE;stroke-width:7.62;stroke-miterlimit:22.9256}
    .fil1 {fill:#FEFEFE}
    .fil2 {fill:#016001}
    .fil0 {fill:#4B5563}
    .fil4 {fill:#FEFEFE;fill-rule:nonzero}
    .fil3 {fill:#016001;fill-rule:nonzero}
   ]]></style></defs><g id="Layer_x0020_1"><rect width="15500" height="5588.59" x="244.53" y="253.54" class="fil0 str0" rx="400.05" ry="398.68"/><circle cx="8028.93" cy="2526.38" r="1857.56" class="fil1"/><path d="M7694.56 1148.38h229.31v618.78h-229.31v-618.78zm229.31 2138.04v620.5h-229.31v-620.5h229.31zM8126.21 1148.38h229.32v725.59l-45.99-9.04-89.9-25.28c-16.11 0-60.77-1.64-93.43-.48v-690.79zm229.32 2086.76v671.78h-229.32v-671.78h229.32z" class="fil2 str1"/><path d="M8108.35 3580.17c-158.84 0-306.4-25.99-442.69-77.95-136.29-51.97-254.44-126-354.45-222.08-100.01-96.09-177.96-208.85-233.85-338.28-55.89-129.42-83.83-271.59-83.83-426.51 0-154.92 27.94-297.09 83.83-426.52 55.89-129.42 134.33-242.18 235.32-338.27 100.99-96.09 219.14-170.12 354.45-222.08 135.31-51.97 283.36-77.95 444.16-77.95 178.45 0 339.75 30.88 483.88 92.66 144.13 61.77 265.22 152.46 363.27 272.08l-305.91 282.39c-70.6-80.4-149.04-140.7-235.32-180.9-86.28-40.21-180.41-60.31-282.38-60.31-96.09 0-184.34 15.69-264.74 47.07-80.4 31.37-150.01 76.48-208.84 135.31-58.83 58.83-104.43 128.44-136.78 208.84-32.36 80.4-48.54 169.63-48.54 267.68 0 98.05 16.18 187.27 48.54 267.67 32.35 80.4 77.95 150.02 136.78 208.85 58.83 58.83 128.44 103.93 208.84 135.31 80.4 31.37 168.65 47.06 264.74 47.06 101.97 0 196.1-20.1 282.38-60.3 86.28-40.2 164.72-101.48 235.32-183.84l305.91 282.38c-98.05 119.62-219.14 210.81-363.27 273.56s-306.41 94.13-486.82 94.13z" class="fil3"/><path d="M4252.35 5421.84c-45.72 0-88.2-7.48-127.43-22.44-39.22-14.95-73.23-36.26-102.02-63.92-28.79-27.66-51.22-60.11-67.31-97.37-16.09-37.25-24.13-78.17-24.13-122.76 0-44.6 8.04-85.52 24.13-122.77 16.09-37.26 38.66-69.71 67.73-97.37 29.07-27.66 63.08-48.96 102.03-63.92 38.94-14.96 81.56-22.44 127.84-22.44 51.37 0 97.8 8.89 139.28 26.67 41.49 17.78 76.34 43.89 104.57 78.32l-88.06 81.28c-20.32-23.14-42.9-40.5-67.73-52.07-24.84-11.57-51.93-17.36-81.28-17.36-27.66 0-53.06 4.52-76.2 13.55-23.14 9.03-43.18 22.01-60.12 38.94-16.93 16.94-30.05 36.98-39.37 60.12-9.31 23.14-13.97 48.82-13.97 77.05 0 28.22 4.66 53.9 13.97 77.04 9.32 23.14 22.44 43.18 39.37 60.12 16.94 16.93 36.98 29.91 60.12 38.94 23.14 9.03 48.54 13.55 76.2 13.55 29.35 0 56.44-5.79 81.28-17.36 24.83-11.57 47.41-29.21 67.73-52.91l88.06 81.28c-28.23 34.43-63.08 60.67-104.57 78.74-41.48 18.06-88.19 27.09-140.12 27.09z" class="fil4"/><path id="1" d="M4862.8 5420.99c-45.72 0-88.48-7.48-128.27-22.43-39.8-14.96-74.23-36.27-103.3-63.93-29.07-27.65-51.36-60.25-66.88-97.79-15.53-37.53-23.57-78.03-24.13-121.49 0-44.03 8.04-84.53 24.13-121.5 16.08-36.97 38.66-69.43 67.73-97.37 29.07-27.94 63.36-49.53 102.87-64.77 39.51-15.24 82.13-22.58 127.85-22.01 47.41-.57 90.73 6.77 129.96 22.01 39.23 15.24 73.38 36.69 102.45 64.35 29.07 27.66 51.65 59.97 67.73 96.94 16.09 36.97 23.85 77.75 23.29 122.35.56 44.02-7.2 84.8-23.29 122.34-16.08 37.54-38.66 69.99-67.73 97.37-29.07 27.37-63.22 48.68-102.45 63.92-39.23 15.24-82.55 22.58-129.96 22.01zm0-115.14c27.09-.57 51.93-5.37 74.51-14.4 22.57-9.03 42.19-22.01 58.84-38.94 16.65-16.94 29.63-36.98 38.95-60.12 9.31-23.14 14.25-48.82 14.81-77.04-.56-28.23-5.5-53.91-14.81-77.05-9.32-23.14-22.3-43.18-38.95-60.12-16.65-16.93-36.27-30.05-58.84-39.37-22.58-9.31-47.42-13.97-74.51-13.97-25.97.57-50.24 5.37-72.82 14.4-22.57 9.03-42.19 22.01-58.84 38.94-16.65 16.94-29.63 36.84-38.95 59.7-9.31 22.86-14.25 48.68-14.81 77.47.56 27.65 5.5 53.19 14.81 76.62 9.32 23.42 22.3 43.6 38.95 60.54 16.65 16.93 36.13 30.05 58.42 39.37 22.3 9.31 46.71 13.97 73.24 13.97z" class="fil4"/><polygon id="2" points="5291.21,5411.68 5291.21,4819.01 5404.67,4819.01 5754.34,5245.73 5700.16,5246.58 5699.31,4819.01 5834.78,4819.01 5834.78,5411.68 5722.17,5411.68 5371.65,4984.96 5426.68,4984.11 5426.68,5411.68" class="fil4"/><path id="3" d="M6258.96 5421.84c-45.72 0-88.2-7.48-127.43-22.44-39.22-14.95-73.23-36.26-102.02-63.92-28.79-27.66-51.22-60.11-67.31-97.37-16.09-37.25-24.13-78.17-24.13-122.76 0-44.6 8.04-85.52 24.13-122.77 16.09-37.26 38.66-69.71 67.73-97.37 29.07-27.66 63.08-48.96 102.03-63.92 38.94-14.96 81.56-22.44 127.84-22.44 51.37 0 97.8 8.89 139.28 26.67 41.49 17.78 76.34 43.89 104.57 78.32l-88.06 81.28c-20.32-23.14-42.9-40.5-67.73-52.07-24.84-11.57-51.93-17.36-81.28-17.36-27.66 0-53.06 4.52-76.2 13.55-23.14 9.03-43.18 22.01-60.12 38.94-16.93 16.94-30.05 36.98-39.37 60.12-9.31 23.14-13.97 48.82-13.97 77.05 0 28.22 4.66 53.9 13.97 77.04 9.32 23.14 22.44 43.18 39.37 60.12 16.94 16.93 36.98 29.91 60.12 38.94 23.14 9.03 48.54 13.55 76.2 13.55 29.35 0 56.44-5.79 81.28-17.36 24.83-11.57 47.41-29.21 67.73-52.91l88.06 81.28c-28.23 34.43-63.08 60.67-104.57 78.74-41.48 18.06-88.19 27.09-140.12 27.09z" class="fil4"/><path id="4" d="M6869.41 5420.99c-45.72 0-88.48-7.48-128.27-22.43-39.8-14.96-74.23-36.27-103.3-63.93-29.07-27.65-51.36-60.25-66.88-97.79-15.53-37.53-23.57-78.03-24.13-121.49 0-44.03 8.04-84.53 24.13-121.5 16.08-36.97 38.66-69.43 67.73-97.37 29.07-27.94 63.36-49.53 102.87-64.77 39.51-15.24 82.13-22.58 127.85-22.01 47.41-.57 90.73 6.77 129.96 22.01 39.23 15.24 73.38 36.69 102.45 64.35 29.07 27.66 51.65 59.97 67.73 96.94 16.09 36.97 23.85 77.75 23.29 122.35.56 44.02-7.2 84.8-23.29 122.34-16.08 37.54-38.66 69.99-67.73 97.37-29.07 27.37-63.22 48.68-102.45 63.92-39.23 15.24-82.55 22.58-129.96 22.01zm0-115.14c27.09-.57 51.93-5.37 74.51-14.4 22.57-9.03 42.19-22.01 58.84-38.94 16.65-16.94 29.63-36.98 38.95-60.12 9.31-23.14 14.25-48.82 14.81-77.04-.56-28.23-5.5-53.91-14.81-77.05-9.32-23.14-22.3-43.18-38.95-60.12-16.65-16.93-36.27-30.05-58.84-39.37-22.58-9.31-47.42-13.97-74.51-13.97-25.97.57-50.24 5.37-72.82 14.4-22.57 9.03-42.19 22.01-58.84 38.94-16.65 16.94-29.63 36.84-38.95 59.7-9.31 22.86-14.25 48.68-14.81 77.47.56 27.65 5.5 53.19 14.81 76.62 9.32 23.42 22.3 43.6 38.95 60.54 16.65 16.93 36.13 30.05 58.42 39.37 22.3 9.31 46.71 13.97 73.24 13.97z" class="fil4"/><path id="5" d="M7297.82 5411.68v-592.67h256.54c53.06 0 98.78 8.61 137.17 25.82 38.38 17.22 68.01 41.91 88.9 74.09 20.88 32.17 31.32 70.55 31.32 115.15 0 44.02-10.44 81.98-31.32 113.87-20.89 31.89-50.52 56.31-88.9 73.24-38.39 16.93-84.11 25.4-137.17 25.4h-180.34l60.96-60.11v225.21h-137.16zm376.77 0-148.17-215.05h146.48l149.86 215.05h-148.17zm-239.61-209.97-60.96-64.35h172.72c42.34 0 73.95-9.17 94.83-27.52 20.89-18.34 31.33-43.6 31.33-75.77 0-32.74-10.44-58.14-31.33-76.21-20.88-18.06-52.49-27.09-94.83-27.09h-172.72l60.96-65.19v336.13z" class="fil4"/><path id="6" d="M7920.12 5411.68v-592.67h269.24c64.35 0 121.08 12.28 170.19 36.83 49.1 24.55 87.48 58.84 115.14 102.87 27.66 44.03 41.21 96.24 40.64 156.64.57 59.83-12.98 111.9-40.64 156.21s-66.04 78.74-115.14 103.29c-49.11 24.55-105.84 36.83-170.19 36.83h-269.24zm137.16-112.61h125.31c39.51.57 73.8-6.77 102.87-22.01 29.07-15.24 51.65-36.69 67.74-64.35 16.08-27.66 24.41-60.11 24.97-97.36-.56-37.82-8.89-70.42-24.97-97.79-16.09-27.38-38.67-48.69-67.74-63.93-29.07-15.24-63.36-22.58-102.87-22.01l-125.31-.85v368.3z" class="fil4"/><polygon id="7" points="8619.47,5411.68 8619.47,4819.01 8756.63,4819.01 8756.63,5411.68" class="fil4"/><path id="8" d="m8819.29 5411.68 264.16-592.67h135.47l265.01 592.67h-143.94l-216.75-523.24h54.19l-217.59 523.24h-140.55zm132.08-127 36.41-104.14h304.8l37.25 104.14h-378.46z" class="fil4"/><path id="9" d="M10068.98 5421.84c-45.72 0-88.2-7.48-127.43-22.44-39.22-14.95-73.23-36.26-102.02-63.92-28.79-27.66-51.22-60.11-67.31-97.37-16.09-37.25-24.13-78.17-24.13-122.76 0-44.6 8.04-85.52 24.13-122.77 16.09-37.26 38.66-69.71 67.73-97.37 29.07-27.66 63.08-48.96 102.03-63.92 38.94-14.96 81.56-22.44 127.84-22.44 51.37 0 97.8 8.89 139.28 26.67 41.49 17.78 76.34 43.89 104.57 78.32l-88.06 81.28c-20.32-23.14-42.9-40.5-67.73-52.07-24.84-11.57-51.93-17.36-81.28-17.36-27.66 0-53.06 4.52-76.2 13.55-23.14 9.03-43.18 22.01-60.12 38.94-16.93 16.94-30.05 36.98-39.37 60.12-9.31 23.14-13.97 48.82-13.97 77.05 0 28.22 4.66 53.9 13.97 77.04 9.32 23.14 22.44 43.18 39.37 60.12 16.94 16.93 36.98 29.91 60.12 38.94 23.14 9.03 48.54 13.55 76.2 13.55 29.35 0 56.44-5.79 81.28-17.36 24.83-11.57 47.41-29.21 67.73-52.91l88.06 81.28c-28.23 34.43-63.08 60.67-104.57 78.74-41.48 18.06-88.19 27.09-140.12 27.09z" class="fil4"/><path id="10" d="m10316.21 5411.68 264.16-592.67h135.47l265.01 592.67h-143.94l-216.75-523.24h54.19l-217.59 523.24h-140.55zm132.08-127 36.41-104.14h304.8l37.25 104.14h-378.46z" class="fil4"/><path id="11" d="M11237.39 5421.84c-47.42 0-92.85-6.35-136.32-19.05-43.46-12.7-78.45-29.21-104.98-49.53l46.56-103.29c25.4 18.06 55.46 32.88 90.17 44.45 34.72 11.57 69.85 17.35 105.41 17.35 27.1 0 48.97-2.68 65.62-8.04 16.65-5.36 28.93-12.84 36.83-22.44 7.9-9.59 11.85-20.6 11.85-33.02 0-15.8-6.2-28.36-18.62-37.67-12.42-9.32-28.79-16.94-49.11-22.86-20.32-5.93-42.76-11.58-67.31-16.94-24.55-5.36-49.11-11.99-73.66-19.89-24.55-7.91-46.99-18.07-67.31-30.48-20.32-12.42-36.83-28.79-49.53-49.11-12.7-20.32-19.05-46.29-19.05-77.89 0-33.87 9.17-64.78 27.52-92.72 18.34-27.94 46-50.23 82.97-66.88s83.4-24.98 139.28-24.98c37.25 0 73.94 4.38 110.06 13.12 36.13 8.75 68.02 21.88 95.68 39.37l-42.33 104.14c-27.66-15.8-55.32-27.51-82.98-35.13-27.66-7.62-54.75-11.43-81.28-11.43s-48.26 3.1-65.19 9.31c-16.94 6.21-29.07 14.25-36.41 24.13-7.34 9.88-11.01 21.31-11.01 34.29 0 15.24 6.21 27.52 18.63 36.83 12.42 9.32 28.79 16.79 49.11 22.44 20.32 5.64 42.75 11.29 67.31 16.93 24.55 5.65 49.1 12.14 73.66 19.48 24.55 7.33 46.99 17.21 67.31 29.63 20.32 12.42 36.83 28.79 49.53 49.11 12.7 20.32 19.05 46 19.05 77.04 0 33.31-9.31 63.79-27.94 91.44-18.63 27.66-46.43 49.96-83.4 66.89-36.97 16.93-83.68 25.4-140.12 25.4z" class="fil4"/><path id="12" d="M11989.24 4819.01h136.31l.85 592.67h-136.32l-.84-592.67zm-269.25 592.67h-136.31l-.85-592.67h136.32l.84 592.67zm280.25-243.84-290.41.85-.84-115.15 290.41-.85.84 115.15z" class="fil4"/></g></svg>