<svg xmlns="http://www.w3.org/2000/svg" xml:space="preserve" width="100mm" height="100mm" style="shape-rendering:geometricPrecision; text-rendering:geometricPrecision; image-rendering:optimizeQuality; fill-rule:evenodd; clip-rule:evenodd" viewBox="0 0 10000 10000"><defs><style><![CDATA[
    .str0 {stroke:#DCD0D0;stroke-width:20;stroke-miterlimit:22.9256}
    .str1 {stroke:#FEFEFE;stroke-width:7.62;stroke-miterlimit:22.9256}
    .fil1 {fill:#FEFEFE}
    .fil0 {fill:#1F1B20}
    .fil2 {fill:#1F1B20;fill-rule:nonzero}
   ]]></style></defs><g id="Layer_x0020_1"><rect width="9500" height="9500" x="231" y="258.27" class="fil0 str0" rx="400.27" ry="400.27"/><circle cx="4936.77" cy="4993.51" r="3920.47" class="fil1"/><path d="M4275.29 2040.93h483.98v1305.96h-483.98V2040.93zm483.98 4512.43v1309.6h-483.98v-1309.6h483.98zM5186.32 2040.93h483.98v1531.4l-97.05-19.07-189.74-53.37c-34 0-128.26-3.46-197.19-1V2040.93zm483.98 4404.22v1417.81h-483.98V6445.15h483.98z" class="fil0 str1"/><path d="M5148.62 7173.34c-335.24 0-646.68-54.84-934.33-164.52-287.64-109.68-537-265.91-748.08-468.71-211.08-202.8-375.59-440.78-493.55-713.94-117.95-273.16-176.93-573.22-176.93-900.19 0-326.96 58.98-627.02 176.93-900.18 117.96-273.16 283.51-511.14 496.65-713.94 213.15-202.8 462.51-359.04 748.09-468.71 285.57-109.68 598.05-164.52 937.43-164.52 376.63 0 717.04 65.19 1021.24 195.56 304.2 130.37 559.77 321.79 766.71 574.25l-645.65 595.99c-149-169.69-314.55-296.96-496.65-381.81-182.11-84.84-380.77-127.26-595.99-127.26-202.8 0-389.04 33.11-558.73 99.33s-316.62 161.41-440.78 285.57c-124.16 124.17-220.39 271.09-288.68 440.78-68.29 169.69-102.43 358.01-102.43 564.94 0 206.94 34.14 395.26 102.43 564.95 68.29 169.69 164.52 316.61 288.68 440.78 124.16 124.16 271.09 219.35 440.78 285.57s355.93 99.33 558.73 99.33c215.22 0 413.88-42.42 595.99-127.27 182.1-84.84 347.65-214.18 496.65-388.01l645.65 595.99c-206.94 252.46-462.51 444.92-766.71 577.36-304.2 132.44-646.68 198.66-1027.45 198.66z" class="fil2"/></g></svg>