<svg xmlns="http://www.w3.org/2000/svg" xml:space="preserve" width="95mm" height="95mm" style="shape-rendering:geometricPrecision; text-rendering:geometricPrecision; image-rendering:optimizeQuality; fill-rule:evenodd; clip-rule:evenodd" viewBox="0 0 9500 9500"><defs><style><![CDATA[
    .str0 {stroke:#FEFEFE;stroke-width:7.62;stroke-miterlimit:22.9256}
    .fil1 {fill:#FEFEFE}
    .fil0 {fill:#016001}
    .fil2 {fill:#FEFEFE;fill-rule:nonzero}
   ]]></style></defs><g id="Layer_x0020_1"><circle cx="4772.46" cy="4767.98" r="4663.69" class="fil0"/><path d="M3932.97 1308.29h575.73v1553.54h-575.73V1308.29zm575.73 5367.88v1557.86h-575.73V6676.17h575.73zM5016.7 1308.29h575.73v1821.72l-115.45-22.69-225.71-63.49c-40.44 0-152.57-4.11-234.57-1.19V1308.29zm575.73 5239.15v1686.59H5016.7V6547.44h575.73z" class="fil1 str0"/><path d="M4971.86 7413.67c-398.79 0-769.28-65.23-1111.45-195.7-342.18-130.47-638.81-316.33-889.9-557.58-251.1-241.24-446.8-524.34-587.12-849.28-140.31-324.94-210.47-681.89-210.47-1070.83 0-388.95 70.16-745.9 210.47-1070.84 140.32-324.94 337.25-608.04 590.81-849.28 253.55-241.25 550.19-427.11 889.9-557.58 339.71-130.47 711.43-195.7 1115.14-195.7 448.03 0 852.98 77.54 1214.85 232.63 361.87 155.09 665.89 382.79 912.05 683.12L6338.1 3691.6c-177.24-201.86-374.18-353.26-590.81-454.19-216.63-100.93-452.95-151.39-708.97-151.39-241.24 0-462.79 39.39-664.65 118.16-201.86 78.77-376.64 192.01-524.34 339.71-147.7 147.71-262.17 322.49-343.41 524.34-81.23 201.86-121.85 425.88-121.85 672.05 0 246.16 40.62 470.18 121.85 672.04 81.24 201.86 195.71 376.64 343.41 524.34 147.7 147.7 322.48 260.94 524.34 339.71 201.86 78.77 423.41 118.16 664.65 118.16 256.02 0 492.34-50.46 708.97-151.39 216.63-100.93 413.57-254.79 590.81-461.57l768.04 708.97c-246.16 300.32-550.18 529.26-912.05 686.81-361.87 157.55-769.28 236.32-1222.23 236.32z" class="fil2"/></g></svg>